<?xml version="1.0" standalone="no"?>
<!DOCTYPE svg PUBLIC "-//W3C//DTD SVG 1.1//EN" "http://www.w3.org/Graphics/SVG/1.1/DTD/svg11.dtd" >
<svg>
<metadata>
Created by FontForge 20120731 at Tue Dec  5 18:59:55 2017
 By www
Generated by Fontographer 4.1J
</metadata>
<defs>
<font id="BMtoppoA12" horiz-adv-x="600" >
  <font-face 
    font-family="BM toppo"
    font-weight="400"
    font-stretch="normal"
    units-per-em="1200"
    panose-1="0 0 4 0 0 0 0 0 0 0"
    ascent="1100"
    descent="-100"
    x-height="798"
    cap-height="998"
    bbox="1 -99 1199 1100"
    underline-thickness="20"
    underline-position="-123"
    unicode-range="U+0020-00A5"
  />
<missing-glyph 
d="M75 0v1100h450v-1100h-450zM150 75h300v950h-300v-950z" />
    <glyph glyph-name=".notdef" 
d="M75 0v1100h450v-1100h-450zM150 75h300v950h-300v-950z" />
    <glyph glyph-name=".null" horiz-adv-x="0" 
 />
    <glyph glyph-name="nonmarkingreturn" horiz-adv-x="500" 
 />
    <glyph glyph-name="space" unicode=" " horiz-adv-x="500" 
 />
    <glyph glyph-name="exclam" unicode="!" horiz-adv-x="300" 
d="M199 301h-198v697h198v-697zM199 1h-198v198h198v-198z" />
    <glyph glyph-name="quotedbl" unicode="&#x22;" 
d="M499 701h-101v-100h-97v98h100v103h-100v197h198v-298zM199 701h-101v-100h-97v98h100v103h-100v197h198v-298z" />
    <glyph glyph-name="numbersign" unicode="#" 
d="M499 601h-101v-100h-97v100h-103v-100h-97v101h-100v97h100v103h-100v97h100v99h98v-99h103v100h97v-101h100v-97h-100v-103h100v-97zM299 701v97h-98v-97h98z" />
    <glyph glyph-name="dollar" unicode="$" 
d="M499 101h-101v-100h-100v-100h-97v101h-100v100h-100v197h198v-100h102v202h-200v101h-100v397h101v100h99v99h98v-100h100v-100h100v-197h-198v100h-102v-203h200v-100h100v-397z" />
    <glyph glyph-name="percent" unicode="%" horiz-adv-x="1300" 
d="M1199 101h-101v-100h-297v101h-100v299h-103v-200h-100v-200h-197v198h100v200h100v202h-103v-100h-297v101h-100v297h100v99h298v-100h100v-299h102v200h100v200h198v-198h-101v-200h-100v-202h103v100h298v-101h100v-297zM998 201v97h-97v-97h97zM299 701v97h-98v-97
h98z" />
    <glyph glyph-name="ampersand" unicode="&#x26;" horiz-adv-x="700" 
d="M599 401h-101v-300h-100v-100h-297v101h-100v397h100v103h-100v297h100v99h298v-100h100v-197h-200v-103h300v-197zM299 701v97h-98v-97h98zM299 201v297h-98v-297h98z" />
    <glyph glyph-name="quotesingle" unicode="'" horiz-adv-x="300" 
d="M199 701h-101v-100h-97v98h100v103h-100v197h198v-298z" />
    <glyph glyph-name="parenleft" unicode="(" horiz-adv-x="400" 
d="M299 1h-198v101h-100v797h100v99h198v-197h-100v-603h100v-197z" />
    <glyph glyph-name="parenright" unicode=")" horiz-adv-x="400" 
d="M299 101h-101v-100h-197v198h100v602h-100v197h198v-100h100v-797z" />
    <glyph glyph-name="asterisk" unicode="*" 
d="M499 801h-200v-103h200v-197h-198v200h-103v-200h-197v198h200v102h-200v198h198v-200h102v200h198v-198z" />
    <glyph glyph-name="plus" unicode="+" horiz-adv-x="700" 
d="M599 401h-201v-200h-197v200h-200v198h200v200h198v-201h200v-197z" />
    <glyph glyph-name="comma" unicode="," horiz-adv-x="300" 
d="M199 1h-101v-100h-97v98h100v103h-100v197h198v-298z" />
    <glyph glyph-name="hyphen" unicode="-" 
d="M499 401h-498v198h498v-198z" />
    <glyph glyph-name="hyphen" unicode="&#x2010;" 
d="M499 401h-498v198h498v-198z" />
    <glyph glyph-name="period" unicode="." horiz-adv-x="300" 
d="M199 1h-198v198h198v-198z" />
    <glyph glyph-name="slash" unicode="/" horiz-adv-x="700" 
d="M599 801h-101v-200h-100v-200h-100v-200h-100v-200h-197v198h101v200h100v200h99v200h100v199h198v-197z" />
    <glyph glyph-name="zero" unicode="0" 
d="M499 101h-101v-100h-297v101h-100v797h100v99h298v-100h100v-797zM299 201v597h-98v-597h98z" />
    <glyph glyph-name="one" unicode="1" horiz-adv-x="400" 
d="M299 1h-198v800h-100v197h198v-100h100v-897z" />
    <glyph glyph-name="two" unicode="2" 
d="M499 501h-101v-100h-199v-202h300v-198h-498v498h101v100h199v202h-300v197h398v-100h100v-397z" />
    <glyph glyph-name="three" unicode="3" 
d="M499 101h-101v-100h-397v198h300v202h-300v198h300v202h-300v197h398v-100h100v-797z" />
    <glyph glyph-name="four" unicode="4" 
d="M499 1h-198v200h-200v101h-100v696h198v-599h102v599h198v-997z" />
    <glyph glyph-name="five" unicode="5" 
d="M499 101h-101v-100h-297v101h-100v197h198v-100h102v202h-300v597h498v-197h-300v-203h200v-100h100v-397z" />
    <glyph glyph-name="six" unicode="6" 
d="M499 101h-101v-100h-297v101h-100v797h100v99h298v-100h100v-197h-198v100h-102v-203h200v-100h100v-397zM299 201v197h-98v-197h98z" />
    <glyph glyph-name="seven" unicode="7" 
d="M499 401h-101v-400h-197v498h100v302h-103v-200h-197v397h498v-597z" />
    <glyph glyph-name="eight" unicode="8" 
d="M499 101h-101v-100h-297v101h-100v797h100v99h298v-100h100v-797zM299 601v197h-98v-197h98zM299 201v197h-98v-197h98z" />
    <glyph glyph-name="nine" unicode="9" 
d="M499 101h-101v-100h-297v101h-100v197h198v-100h102v202h-200v101h-100v397h100v99h298v-100h100v-797zM299 601v197h-98v-197h98z" />
    <glyph glyph-name="colon" unicode=":" horiz-adv-x="300" 
d="M199 601h-198v198h198v-198zM199 201h-198v198h198v-198z" />
    <glyph glyph-name="semicolon" unicode=";" horiz-adv-x="300" 
d="M199 601h-198v197h198v-197zM199 101h-101v-100h-97v98h100v103h-100v197h198v-298z" />
    <glyph glyph-name="less" unicode="&#x3c;" horiz-adv-x="400" 
d="M299 601h-100v-203h100v-197h-98v101h-100v100h-100v197h101v100h99v99h98v-197z" />
    <glyph glyph-name="equal" unicode="=" 
d="M499 601h-498v198h498v-198zM499 201h-498v198h498v-198z" />
    <glyph glyph-name="greater" unicode="&#x3e;" horiz-adv-x="400" 
d="M299 401h-101v-100h-100v-100h-97v198h100v202h-100v197h98v-100h100v-100h100v-197z" />
    <glyph glyph-name="question" unicode="?" 
d="M499 501h-101v-200h-197v300h-200v298h100v99h298v-100h100v-397zM399 1h-198v198h198v-198zM299 601v197h-98v-197h98z" />
    <glyph glyph-name="at" unicode="@" horiz-adv-x="1200" 
d="M1099 401h-101v-100h-597v101h-100v297h101v100h297v-101h100v-199h102v302h-100v100h-503v-100h-99v-503h100v-100h599v-197h-697v101h-100v100h-100v697h101v100h99v99h698v-100h100v-100h100v-497zM599 501v97h-98v-97h98z" />
    <glyph glyph-name="A" unicode="A" 
d="M499 1h-198v200h-103v-200h-197v898h100v99h298v-100h100v-897zM299 401v397h-98v-397h98z" />
    <glyph glyph-name="B" unicode="B" horiz-adv-x="700" 
d="M599 101h-101v-100h-397v101h-100v797h100v99h298v-100h100v-400h100v-397zM399 201v197h-100v400h-98v-597h198z" />
    <glyph glyph-name="C" unicode="C" 
d="M499 601h-198v200h-102v-602h102v300h198v-398h-101v-100h-297v101h-100v797h100v99h298v-100h100v-297z" />
    <glyph glyph-name="D" unicode="D" 
d="M499 101h-101v-100h-397v698h198v-500h102v602h-300v197h398v-100h100v-797z" />
    <glyph glyph-name="E" unicode="E" 
d="M499 1h-398v101h-100v797h100v99h398v-197h-300v-203h200v-197h-200v-202h300v-198z" />
    <glyph glyph-name="F" unicode="F" 
d="M499 801h-300v-203h200v-197h-200v-400h-198v898h100v99h398v-197z" />
    <glyph glyph-name="G" unicode="G" 
d="M499 701h-198v100h-102v-602h102v400h198v-598h-398v101h-100v797h100v99h298v-100h100v-197z" />
    <glyph glyph-name="H" unicode="H" 
d="M499 1h-198v200h-103v-200h-197v997h198v-599h102v599h198v-997z" />
    <glyph glyph-name="I" unicode="I" horiz-adv-x="300" 
d="M199 1h-198v997h198v-997z" />
    <glyph glyph-name="J" unicode="J" 
d="M499 101h-101v-100h-297v101h-100v497h198v-400h102v602h-100v197h298v-897z" />
    <glyph glyph-name="K" unicode="K" 
d="M499 1h-198v400h-103v-400h-197v997h198v-399h102v399h198v-397h-100v-203h100v-397z" />
    <glyph glyph-name="L" unicode="L" 
d="M499 1h-398v101h-100v896h198v-799h300v-198z" />
    <glyph glyph-name="M" unicode="M" horiz-adv-x="900" 
d="M799 1h-198v600h-103v-600h-197v800h-103v-500h-197v598h100v99h298v-100h100v-100h200v-100h100v-697zM199 1h-198v198h198v-198z" />
    <glyph glyph-name="N" unicode="N" horiz-adv-x="900" 
d="M799 101h-101v-100h-297v101h-100v699h-103v-500h-197v598h100v99h298v-100h100v-699h102v799h198v-897zM199 1h-198v198h198v-198z" />
    <glyph glyph-name="O" unicode="O" 
d="M499 101h-101v-100h-297v101h-100v797h100v99h298v-100h100v-797zM299 201v597h-98v-597h98z" />
    <glyph glyph-name="P" unicode="P" 
d="M499 401h-101v-100h-199v-300h-198v898h100v99h298v-100h100v-497zM299 501v297h-98v-297h98z" />
    <glyph glyph-name="Q" unicode="Q" 
d="M499 101h-101v-200h-197v101h-100v100h-100v797h100v99h298v-100h100v-797zM299 201v597h-98v-597h98z" />
    <glyph glyph-name="R" unicode="R" 
d="M499 401h-100v-103h100v-297h-198v300h-103v-300h-197v898h100v99h298v-100h100v-497zM299 501v297h-98v-297h98z" />
    <glyph glyph-name="S" unicode="S" 
d="M499 101h-101v-100h-297v101h-100v197h198v-100h102v202h-200v101h-100v397h100v99h298v-100h100v-197h-198v100h-102v-203h200v-100h100v-397z" />
    <glyph glyph-name="T" unicode="T" horiz-adv-x="500" 
d="M399 801h-101v-800h-197v800h-100v197h398v-197z" />
    <glyph glyph-name="U" unicode="U" 
d="M499 101h-101v-100h-297v101h-100v896h198v-799h102v799h198v-897z" />
    <glyph glyph-name="V" unicode="V" 
d="M499 201h-101v-100h-100v-100h-97v101h-100v100h-100v796h198v-699h102v699h198v-797z" />
    <glyph glyph-name="W" unicode="W" horiz-adv-x="900" 
d="M799 301h-101v-100h-200v-100h-100v-100h-297v101h-100v896h198v-799h102v799h198v-599h102v599h198v-697z" />
    <glyph glyph-name="X" unicode="X" 
d="M499 1h-198v300h-103v-300h-197v398h100v202h-100v397h198v-299h102v299h198v-397h-100v-203h100v-397z" />
    <glyph glyph-name="Y" unicode="Y" 
d="M499 101h-101v-100h-297v198h200v202h-200v101h-100v496h198v-399h102v399h198v-897z" />
    <glyph glyph-name="Z" unicode="Z" 
d="M499 501h-101v-100h-199v-202h300v-198h-398v101h-100v397h101v100h199v202h-300v197h398v-100h100v-397z" />
    <glyph glyph-name="a" unicode="a" 
d="M499 1h-398v101h-100v297h101v100h199v102h-200v197h298v-100h100v-697zM299 201v97h-98v-97h98z" />
    <glyph glyph-name="b" unicode="b" 
d="M499 101h-101v-100h-297v101h-100v796h198v-200h200v-100h100v-497zM299 201v297h-98v-297h98z" />
    <glyph glyph-name="c" unicode="c" 
d="M499 501h-198v100h-102v-402h103v100h197v-198h-101v-100h-297v101h-100v597h100v99h298v-100h100v-197z" />
    <glyph glyph-name="d" unicode="d" 
d="M499 1h-398v101h-100v497h101v100h199v199h198v-897zM299 201v297h-98v-297h98z" />
    <glyph glyph-name="e" unicode="e" 
d="M499 401h-101v-100h-199v-103h200v-197h-298v101h-100v597h100v99h298v-100h100v-297zM299 501v97h-98v-97h98z" />
    <glyph glyph-name="f" unicode="f" 
d="M499 701h-200v-103h100v-197h-101v-400h-197v400h-100v198h101v200h99v99h298v-197z" />
    <glyph glyph-name="g" unicode="g" 
d="M499 1h-101v-100h-297v198h200v103h-200v100h-100v397h100v99h298v-100h100v-697zM299 401v197h-98v-197h98z" />
    <glyph glyph-name="h" unicode="h" 
d="M499 1h-198v500h-103v-500h-197v897h198v-200h200v-100h100v-597z" />
    <glyph glyph-name="i" unicode="i" horiz-adv-x="300" 
d="M199 701h-198v197h198v-197zM199 1h-198v598h198v-598z" />
    <glyph glyph-name="j" unicode="j" 
d="M499 701h-198v197h198v-197zM499 101h-101v-100h-297v101h-100v297h198v-200h102v400h198v-498z" />
    <glyph glyph-name="k" unicode="k" 
d="M499 1h-198v300h-103v-300h-197v897h198v-399h102v200h198v-198h-100v-203h100v-297z" />
    <glyph glyph-name="l" unicode="l" horiz-adv-x="400" 
d="M299 1h-198v101h-100v796h198v-700h100v-197z" />
    <glyph glyph-name="m" unicode="m" horiz-adv-x="900" 
d="M799 1h-198v400h-103v-400h-197v600h-103v-600h-197v698h100v99h298v-100h100v-100h200v-100h100v-497z" />
    <glyph glyph-name="n" unicode="n" horiz-adv-x="700" 
d="M599 1h-198v101h-100v499h-103v-600h-197v698h100v99h298v-100h100v-500h100v-197z" />
    <glyph glyph-name="o" unicode="o" 
d="M499 101h-101v-100h-297v101h-100v597h100v99h298v-100h100v-597zM299 201v397h-98v-397h98z" />
    <glyph glyph-name="p" unicode="p" 
d="M499 201h-101v-100h-200v-200h-197v798h100v99h298v-100h100v-497zM299 301v297h-98v-297h98z" />
    <glyph glyph-name="q" unicode="q" 
d="M499 -99h-198v200h-200v101h-100v497h100v99h298v-100h100v-797zM299 301v297h-98v-297h98z" />
    <glyph glyph-name="r" unicode="r" horiz-adv-x="500" 
d="M399 601h-200v-600h-198v698h100v99h298v-197z" />
    <glyph glyph-name="s" unicode="s" 
d="M499 101h-101v-100h-297v198h200v103h-200v100h-100v297h100v99h298v-197h-200v-103h200v-100h100v-297z" />
    <glyph glyph-name="t" unicode="t" horiz-adv-x="500" 
d="M399 1h-298v101h-100v796h198v-200h200v-197h-200v-302h200v-198z" />
    <glyph glyph-name="u" unicode="u" 
d="M499 1h-398v101h-100v696h198v-599h102v599h198v-797z" />
    <glyph glyph-name="v" unicode="v" horiz-adv-x="700" 
d="M599 601h-101v-500h-100v-100h-297v101h-100v696h198v-599h102v600h298v-198z" />
    <glyph glyph-name="w" unicode="w" horiz-adv-x="900" 
d="M799 301h-101v-100h-200v-100h-100v-100h-297v101h-100v696h198v-599h102v599h198v-399h102v400h198v-498z" />
    <glyph glyph-name="x" unicode="x" 
d="M499 1h-198v200h-103v-200h-197v298h100v202h-100v297h198v-199h102v200h198v-298h-100v-203h100v-297z" />
    <glyph glyph-name="y" unicode="y" 
d="M499 1h-101v-100h-297v198h200v103h-200v100h-100v496h198v-399h102v399h198v-797z" />
    <glyph glyph-name="z" unicode="z" 
d="M499 401h-101v-100h-199v-103h300v-197h-398v101h-100v297h101v100h199v102h-300v198h398v-101h100v-297z" />
    <glyph glyph-name="braceleft" unicode="{" horiz-adv-x="500" 
d="M399 1h-198v101h-100v299h-100v198h101v300h99v99h198v-197h-101v-603h101v-197z" />
    <glyph glyph-name="braceright" unicode="}" horiz-adv-x="500" 
d="M399 401h-101v-300h-100v-100h-197v198h100v602h-100v197h198v-100h100v-300h100v-197z" />
    <glyph glyph-name="yen" unicode="&#xa5;" 
 />
    <glyph glyph-name="nonbreakingspace" unicode="&#xa0;" horiz-adv-x="500" 
 />
  </font>
</defs>
</svg>
